<?xml version="1.0" encoding="UTF-8"?>
<svg id="Layer_1" data-name="Layer 1" xmlns="http://www.w3.org/2000/svg" version="1.1" viewBox="0 0 435.5 125">
  <defs>
    <style>
      .cls-1 {
        fill: #154273;
      }

      .cls-1, .cls-2, .cls-3 {
        stroke-width: 0px;
      }

      .cls-2 {
        fill: #000;
      }

      .cls-3 {
        fill: #fff;
      }
    </style>
  </defs>
  <rect class="cls-1" x="193.9" width="50" height="100"/>
  <path class="cls-3" d="M219.8,77.4h-.9v-2.4h.9v2.4ZM223.7,66.7h-.9v-2.4h.9v2.4ZM207.6,62.6c0,0-.5,0-.5,0s.2,0,.5,0c.7.1,1,.5,1.5.5.4,0,.7-.2.8-.6,0-.1,0-.2,0-.3,0-.1,0,0-.1,0-.1.3-.5.5-.8.5-.4,0-.5-.2-1.2-.2h0ZM202.9,65c0,.1.9,1.2-.4,1.6,0,0,0,0,0,.1.5.3,1.1.1,1.4-.3.3.5.2,1.2-.2,1.6.3.4.7.6,1.2.7.3-.2.6-.5.8-.8.1.3.1.6,0,.9,1.9.2,2.6-1.3,4-1.1,0,0,0,0,0,0,0-1.4-1-2.7-2.4-3-1.8-.3-1.3-1.1-1.3-1.1.4,0,.8,0,1.2.3,0-.2,0-.3,0-.5,0-.1,0-.3.1-.4-.9,0-1.1-.2-1.1-.2-.1-.5.2-1.2,1.5-.5.2-.2.3-.5.3-.7,0,0,.2-.2.2-.3,0-.2-1-.8-1.3-.8,0-.3-.5-.8-1.7-.6-.6,0-1,0-.8-.4,0,0,0,0-.1,0s-.3.5.2.8c.3.2.6.5.6.9,0,.1-.1.1-.2,0-.3-.8-1.2-1.1-2-.8,0,0-.2,0-.3.1,0,.4.4.8.9.8.2,0,.4-.2.4-.4,0-.1,0,0,0,0,0,.4-.2.7-.6.7-.2,0-.4,0-.5-.1-.5.5-.6,1.3-.4,2,.1.6-.2,1.2-.7.9h0c0,.4.3.7.7.7.2,0,.3,0,.5-.2ZM206.9,61.3c-.2.2-.6.2-.8,0-.1,0-.2-.2-.2-.4.7,0,1,0,1,.3h0ZM229,62.8c-.3,0-.7-.1-.8-.5,0,0,0,0-.1,0-.1.4,0,.8.4.9.1,0,.2,0,.3,0,.5,0,.8-.3,1.5-.5.3,0,.5,0,.5,0s-.5,0-.5,0c-.7,0-.8.1-1.3.1h0ZM236.2,64.5c0,0,0,0,0,0-.5.3-.8-.3-.7-.9.3-.7.1-1.5-.4-2-.3.2-.7.2-.9,0-.1-.1-.2-.3-.1-.5,0,0,0,0,0,0,0,.2.2.4.4.4.4,0,.8-.4.9-.8-.7-.5-1.6-.3-2.1.4,0,0-.1.2-.2.3,0,.1-.2,0-.2,0,0-.4.2-.7.6-.9.5-.2.3-.6.2-.8s-.2,0-.1,0c.2.3-.2.5-.8.4-1.2-.2-1.6.3-1.7.6-.3,0-1.3.6-1.3.8,0,.1,0,.2.2.3,0,.3.1.5.3.7,1.3-.8,1.6,0,1.5.5-.3.2-.7.2-1.1.2,0,.1,0,.3.1.4-.1.1-.1.3,0,.5.4-.2.8-.3,1.2-.3,0,0,.5.7-1.3,1.1-1.4.3-2.4,1.6-2.4,3,0,0,0,0,0,0,1.5-.3,2.1,1.2,4,1.1,0-.3,0-.6,0-.9.2.3.4.6.8.8.5,0,.9-.3,1.2-.7-.5-.4-.6-1.1-.2-1.7.3.4.9.6,1.4.3,0,0,0,0,0-.1-1.3-.4-.4-1.5-.4-1.6.3.3.7.2,1,0,.1-.1.2-.3.2-.5h0ZM232,60.9c0,.3-.3.6-.6.6-.2,0-.3,0-.4-.2,0-.3.3-.4,1-.4h0ZM218.6,50.2c0,.1,0,.3.1.4.1.2.1.2,0,.3s-.1,0-.3,0c-.1,0-.2-.1-.4-.1-.2,0-.4,0-.4.2,0,.2,0,.4.2.4,0,0,.1,0,.2,0,.1,0,.3,0,.4-.1.2-.1.2,0,.3,0,0,.3,0,.7,0,1-.3,0-.6.3-.7.7,0,.5.6.9.9,1,.4-.2.9-.5.9-1,0-.3-.3-.6-.7-.7,0-.3,0-.7,0-1,0,0,.1,0,.3,0,.1,0,.2.1.4.1.2,0,.4,0,.4-.2,0-.2,0-.4-.2-.4,0,0-.1,0-.2,0-.1,0-.3,0-.4.1-.2.1-.2,0-.3,0s0-.1,0-.3c0-.1.1-.2.1-.4,0-.2,0-.4-.3-.4-.2,0-.4,0-.4.3,0,0,0,0,0,.1h0ZM219,54.3c-.4,0-.7.3-.7.7,0,.4.4.6.7.6.3,0,.5-.3.6-.6,0-.4-.3-.7-.7-.7ZM219,60.7c1.4,0,2.8.1,4.2.5,0-1.3,0-2.1.8-2-.4-1.1,1.4-1.6,1.4-3.1s-.7-1.1-.9-1.1c-.6,0-.5.4-1,.4h-.1s.1.5.4.5.3-.3.6-.3.2,0,.2.4c0,.7-.4,1.4-.9,1.9,0-.2-.3-.2-.4-.2-.3,0-.6.3-.5.7,0,.1,0,.2,0,.3-.1,0-.3.1-.4.1-.3,0-.5-.2-.6-.5,0,0,0,0,0-.1,0-1.1,1.4-2,1.4-3.4,0-.7-.5-1.3-1.2-1.3,0,0,0,0-.1,0-1,0-.8.9-1.6.9h0s.1.5.6.5.6-.8,1-.8.4,0,.4.6c0,.6-.2,1.2-.5,1.8-.1-.1-.3-.2-.4-.2-.4,0-.7.4-.6.8,0,.3,0,.5.3.7-.2.3-.4.5-.7.5-.6,0-.8-.3-.8-.7s.7-.5.7-1.1c0-.3-.2-.6-.5-.6,0,0,0,0,0,0-.2,0-.3,0-.4.2-.1-.1-.3-.2-.4-.2-.3,0-.6.3-.5.6,0,0,0,0,0,0,0,.6.7.8.7,1.1s-.3.7-.8.7c-.3,0-.6-.2-.7-.5.2-.2.3-.4.3-.7,0-.4-.2-.7-.6-.8,0,0,0,0,0,0-.2,0-.3,0-.4.2-.3-.6-.4-1.1-.5-1.8,0-.5.2-.6.4-.6.4,0,.5.8,1,.8s.6-.5.6-.5,0,0,0,0c-.8,0-.6-.9-1.6-.9-.7,0-1.3.5-1.3,1.2,0,0,0,0,0,.1,0,1.4,1.4,2.3,1.4,3.4,0,.3-.2.5-.4.6,0,0,0,0,0,0-.1,0-.3,0-.4-.1,0-.1,0-.2,0-.3,0-.3-.2-.6-.5-.7-.2,0-.3,0-.4.2-.5-.5-.8-1.2-.9-1.9,0-.3.1-.4.2-.4s.2.3.6.3.4-.3.4-.5,0,0-.1,0c-.5,0-.4-.4-1-.4s-.9.1-.9,1.1c0,1.5,1.8,1.9,1.4,3.1.8-.1.8.6.8,2,1.3-.4,2.7-.5,4.1-.5ZM214.1,62.7c-.5.1-1,.2-1.5.4,0-.3.1-.6.4-.7M213,62.3c-.6-.4-1,.4-1,.4-.2,0-.6,0-.6.4,0,.9-2.1,1.4-2.6,1.5.6.3,1,.8,1.2,1.4.4-.5,1-.9,1.5-1.2.2,0,.2.2.2.3s0,0,0,0c.3-.5.2-.6.1-.8,0-.2,0-.4.3-.5,0,0,.1,0,.2,0v6.2h-.2c-.1,0-1-.8-2.1-1.5s-1.6-.3-2.8.3c-1,.5-2.1.5-3.1,0-1.3.9-1.8,3.7-1.8,3.7-.4.1-.7.2-1.1.2-1,0-1.2-.6-1.2-1,0-1.6,2-2.2,2-3.8,0-1-.8-1.9-1.9-1.9,0,0-.1,0-.2,0h-1.7c-.5,0-.9-.3-1-.7,0,0-.1,0,0,0s0,.3,0,.7c0,.5.4,1,.9,1,0,0,.1,0,.2,0,.2,0,.5,0,.7-.2,0,0,.1,0,0,0-.3.3-.3.8-.2,1.2h0c.2-.7.8-1.3,1.6-1.3.6,0,1,.4,1,1,0,0,0,0,0,0,0,1.3-2.2,2.2-2.2,3.9s1.9,2.1,2.9,1.8c0,1.8-2.1,2.4-2.1,1.1,0,0,0,0,0,0-.2.6-.1,1.2.6,1.3,0,0,0,0,0,0-.8.5-.4,2.4-.3,3,0,.8-.8.7-.8.7s0,0,0,0c.3.4.9.4,1.2.1,0,0,0,0,0,0,.5.2.2.6-.2.9,0,0,0,0,0,0s.9,0,1.1-.6c.3.3.7.4,1,.2.2,0,.9-.4,1,.5,0,0,0,0,0,0,.3-.3.3-.7,0-1-.1-.1-.3-.2-.5-.2.2-.2.6-.2.8,0,0,0,0,0,0,.1h0c0-1-.7-1-1.2-.6,0,0-.2-.6.6-.6,0,0,0,0,0,0-.2-.3-.7-.4-1-.1,0,0-.1.1-.2.2-.3.3-.9.2-1,.2.2-3.3,3.1-2.1,3.5-3.7,0,0,0,0,0,0,.1.4,1.1.4,1.3-.3,0,0,0,0,0,0-.8.8-2.7-1.8-.1-3.9,1.4-1.3,3.5-1.4,4.9-.2,0,.2,0,.3-.2.4,0,0,0,0,0,0h0c.2.2.5.1.6,0,.5.3,0,.7-.1.9h0c.4,0,.7-.2.8-.6h0v1.9c0,2.7,3.1,3,6.4,5.3,3.4-2.2,6.4-2.6,6.4-5.3v-1.7h0c0,.4.4.6.8.6,0,0,0,0,0,0s-.6-.5-.1-.9c.2.2.4.2.6.1,0,0,0,0,0,0-.2,0-.3-.2-.2-.4,0,0,0,0,0,0,1.5-1.2,3.6-1.1,4.9.2,2.6,2.1.7,4.7-.1,3.9h0c.2.8,1.2.8,1.3.4,0,0,0,0,0,0,.4,1.6,3.3.4,3.5,3.7,0,0-.7.1-1-.2-.2-.3-.6-.4-1-.2,0,0-.1.1-.2.2h0c.8,0,.6.6.6.7-.5-.4-1.3-.3-1.2.6,0,0,0,0,0,0,.2-.3.5-.4.8-.2,0,0,0,0,.1,0-.4,0-.7.4-.6.8,0,.2.1.4.2.5,0,0,0,0,0,0,0-.9.9-.6,1-.5.3.1.7,0,1-.2.1.7,1,.6,1.1.6s0,0,0,0c-.4-.2-.7-.7-.1-.9.3.3.9.3,1.2,0,0,0,0,0,0,0,0,0,0,0,0,0s-.9.1-.8-.7c0-.6.5-2.5-.3-3,0,0,0,0,0,0,.8-.2.9-.7.6-1.3,0,0,0,0,0,0,0,1.3-2.1.7-2.1-1.1,1.1.3,2.9,0,2.9-1.8s-2.2-2.7-2.2-3.9c0-.6.4-1,.9-1.1,0,0,0,0,0,0,.8,0,1.4.5,1.6,1.3M238.8,68.5c.1-.4,0-.8-.2-1.2,0,0,0,0,0,0,.2.1.5.2.7.2.5,0,1-.3,1.1-.8,0,0,0-.1,0-.2,0-.4-.1-.6,0-.7s0,0,0,0c-.1.4-.5.7-1,.7h-1.7c-1-.1-1.9.6-2.1,1.7,0,0,0,.2,0,.2,0,1.6,2,2.2,2,3.8s-.2,1-1.2,1c-.4,0-.8,0-1.1-.2,0,0-.5-2.8-1.8-3.7-1,.4-2.1.4-3.1,0-1.2-.6-1.7-1.1-2.8-.3s-1.9,1.5-2.1,1.5h-.2v-6.2c.2,0,.4.1.5.3,0,0,0,.1,0,.2,0,.2-.2.3.1.8M225.9,65.2c0-.1,0-.3.2-.3.6.3,1.2.6,1.7,1.1.2-.6.7-1.1,1.2-1.4-.5,0-2.6-.6-2.6-1.5s-.4-.4-.6-.4c0,0-.4-.8-1-.4M224.9,62.4c.3.1.5.4.4.7-2.1-.6-4.2-.9-6.4-.9-1.3,0-2.7.1-4,.4v2.2h-.9v-2h0M208.3,84.6c-.2,0-.4-.3-.4-.6v-1.3c-1.1-.4-2.3-.6-3.5-.5-1.7,0-2.3.4-2.3.5l-.5,2.5s.7-.6,3.2-.5c3,.2,6.2,2,6.2,0v-1.1c-2.4,0-2.7.8-2.7.9h0ZM226.9,83.8v1.1c0,1.9,3.1.1,6.1,0,2.5-.2,3.2.5,3.2.5l-.5-2.5c0-.1-.6-.5-2.3-.5-1.2,0-2.4.1-3.5.5v1.3c0,.3-.1.5-.4.6,0-.1-.4-.9-2.7-.9h0ZM219,82.6c4.9,0,9.8.3,10.5,1,0,0,0,0,0,0v-2.6c0-.8-5.1-1.2-10.5-1.2s-10.5.4-10.5,1.2v2.6c0,0,0,.1,0,0,.6-.7,5.6-1,10.4-1h0ZM214.6,70.4h-.5c0-.1,0,0,0,0l-.6-.2h.5c0,0-.4-.5-.4-.5l.6.2s0,0,0,0l-.4-.6.6.4s0,0,0,0c-.1-.3-.3-.7-.3-.7l.5.5s0,0,0,0v-.7c-.1,0,.2.5.2.5h0v-.6l.2.6h0c0,0,.2-.5.2-.5v.6h0v.7c.6-.2,1.5-1.4,2.2-1.4s1.1,1,2.7.5c.3.5.6,1.1.7,1.8.6.6,1.4.4,1.4-.2s-.9-1-.9-1.8c0-.5.4-.9.9-.9,0,0,0,0,0,0,.4,0,.9.2,1.2.2.2,0,.5-.2.5-.4,0,0,.1,0,.1,0s0,.2,0,.4c0,.5-.8.6-.9.5s0,0,0,0,0,.4,0,.6h0c-.1-.4-.5-.8-.9-.8-.2,0-.4.2-.4.4,0,0,0,0,0,0,0,.5,1,.9,1,1.9s-1,1.3-2,1c0,1,1.5,1.6,1.5.9h0c.1.1.2.4,0,.5,0,0-.1,0-.2.1.3.1.3.6.4.9s.6.2.6.2,0,0,0,0c-.1.3-.4.4-.7.3-.3.2,0,.3.3.4h0s-.5.2-.7-.1c0,.2-.3.3-.5.3-.2,0-.3.2-.3.4h0c-.4-.3-.2-.6,0-.7-.2,0-.3,0-.4.1,0,0,0,0,0,0h0c-.2-.5.2-.7.5-.5,0-.2-.4-.3-.6-.2h0s.3-.4.6-.2c.2.1.5,0,.5,0-.6-1.3-1.9-.2-2.2-1.2h0c0,.2-.6.2-.7-.2h0s.2.2.5-.2c.1-.2.2-.5.2-.7,0-1.1-.9-2-2-2.1-.8,0-1.6.3-2.2.8h.6c0,.6-.5,1-1,.9,0,0,0,0-.1,0v-.7c0,0-.2.1-.4.3h0c0-.3,0-.5.3-.6h0c-.2,0-.4,0-.5.3h0c0-.1-.1-.3,0-.4h0ZM216.3,75c-.2.3-.4,0-.7,0-.2,0-.3.1-.3.3,0,0,0,0,0,0h0c-.2-.1-.2-.4,0-.6,0,0,.2-.1.3-.1-.1-.1-.4-.1-.5,0,0,0,0,0,0,0h0c0-.5.4-.6.7-.3,0-.2,0-.3-.3-.3h0c0,0,.2-.1.3-.1.3,0,.3.4.5.4s.7-.4.7-.4c-.1-.4-.2-.8-.2-1.2h0s-.5,0-.5-.3h0c.1.2.4,0,.5-.2s.9-1.2,1.8-1.2c.3,0,.5.1.7.3-.3.4,0,.8.2.7h0c-1.3.5-1.8.7-1.8,1.7s.2.9.5.8h0c0,.1-.2.2-.4.2-.3,0-.3-.2-.4-.2s-.6.3-.6.5c0,.1,0,.3.2.3h0s-.5,0-.6-.2ZM219.6,64.8c-.4,0-.6,0-.6.2.2.1.4.1.6-.2h0ZM218.2,65.8c.2,0,.4,0,.6,0h0c-.6.2-.6.4-1,.4-.2,0-.4-.2-.4-.5,0,0,0,0,0-.1h0c0,0,.3.2.7,0h0ZM210.7,78.6c.4.5.8,0,1.3,0s.5,0,.6.6h0c.3-.3.3-.7,0-1-.1-.1-.3-.2-.4-.2.3-.3.7-.3.9,0,0,0,0,0,0,0h0c0-1-.7-1-1.2-.6,0-.4.2-.6.6-.6,0,0,0,0,0,0-.6-.7-1.1.2-1.2.3-.2.3-1.2-.3-1.5-.7.4-.4.7-1,.8-1.6h0c0-.2,0-.1,0-.1,0,0,.2,0,.3,0,.2,0,.5,0,.5-.7h0c0,.1-.2.2-.3.2-.6,0-2-2.2-3.6-2.2-.6,0-1.2.3-1.6.7.2.1.3.3.2.5,0,.2-.2.4-.5.5h0c.9.4,1.8.7,2.6,1.2.4.3.3,1,0,1.9s-.7.7-.9.7h0c.2.2.4.3.7.3.4,0,.6-.3.8-.3.4,0,1.1.5,1.1.9,0,.2-.2.5-.4.6h0c.2,0,.9,0,1-.6h0ZM228.3,79.2h0c-.2-.1-.4-.3-.4-.6,0-.4.8-.9,1.1-.9s.4.3.8.3c.3,0,.5-.1.7-.3h0s-.6.1-.9-.7-.3-1.5,0-1.9c.8-.5,1.7-.9,2.6-1.2,0,0,0,0,0,0-.2,0-.4-.2-.5-.5,0-.2,0-.4.2-.5-.4-.4-1-.7-1.6-.7-1.6,0-3,2.2-3.6,2.2-.1,0-.2,0-.3-.2h0c0,.7.3.7.5.7.1,0,.2,0,.3,0h0c0,.7.4,1.3.8,1.8-.4.4-1.3,1-1.5.7-.1-.1-.6-1-1.2-.3h0c.4,0,.6.3.5.7-.5-.4-1.2-.3-1.2.6h0c.2-.3.6-.4.9-.1,0,0,0,0,0,0-.4,0-.7.4-.7.8,0,.2,0,.3.2.4h0c0-.5.4-.6.6-.6.5,0,.9.5,1.3,0,.1.5.8.5,1,.4h0ZM215.4,66.6c0,0-.2,0-.3,0s0,0,0,0c0,0,.2.4.4.4.1,0,.2,0,.3-.1,0,0,.9.3,1.4.4-.2.2-.3.5-.3.8-.4-.2-1.9-1-1.9-1l-.5.6c0,0-.4-.2-.4-.3l.4-.5c-.1-.1-.4,0-.5,0s0,0,0,0c.1-.3.4-.4.7-.3,0-.3-.4-.2-.5-.2s0,0,0,0c.2-.2.5-.3.8-.2l.2-.2-.3-.3.2-.3.2.3,1.7-2.4c.2,0,.3-.1.5-.2,0,.2,0,.4,0,.5l-1.7,2.4h.4c0,.1-.2.4-.2.4l-.4-.2h-.2ZM221.5,66.2c0,.2.1.5.4.4h0c0,.2-.5.5-.7.2-.2.3-.1.7.2.9,0,0,0,0,0,0h0c-.2.2-.5.1-.7,0,0,0,0,0,0,0-.3.2-.3.6,0,.9-.5.3-1.1.4-1.6.2-.5-.3-1-.5-1.6-.5,0-.9.6-1.2,1.4-1.3.7-.1.8-.4.7-.7-.2,0-.5,0-.7.2,0,0,0-.2,0-.3,0,0,0-.1,0-.2.5,0,.6,0,.6,0,0-.5-.4-.6-.8-.3-.1,0-.2-.2-.2-.4,0,0,0,0,0-.2,0-.1.6-.4.7-.5s.2-.4.9-.3c0-.3,0-.6-.1-.9,0,0,0,0,0,0s.4.6.6.6c.2-.1.5-.2.7-.3,0,.3,0,.5.1.8,0,.1.6,0,.9,0,0,0,0,0,0,0-.3,0-.6.2-.8.4.2.4.3.9.2,1.4Z"/>
  <path class="cls-2" d="M255.4,64.5c.6-.2.9-.4.9-.9l.7-7.9-.9-.3v-.5c.7,0,1.4-.1,2.1-.1h.6l2.4,7.5h0l2.4-7.5h.7c.6,0,1.3,0,1.9.1v.5l-1,.2.7,8.5.9.2v.3c-.5.2-1,.3-1.5.3-.6,0-1.1,0-1.7-.2v-.3c.6,0,1-.5.9-1.1,0,0,0,0,0,0l-.4-7h0l-2.8,8.6h-.6c0,0-2.8-8.6-2.8-8.6h0l-.5,7.8,1,.3v.3c-.6.2-1.2.3-1.8.3-.4,0-.8,0-1.2-.2v-.3Z"/>
  <path class="cls-2" d="M267.9,64.5c.4-.2.8-.5.8-.8v-5.2l-1-.4v-.3c.6-.2,1.2-.3,1.9-.3h.5v.8c0,0,0,5.9,0,5.9l.9.2v.3c-.6.2-1.2.3-1.8.3-.4,0-.8,0-1.2-.1v-.3ZM268.6,55.1c0-.5.4-.9.9-.9,0,0,0,0,0,0,.4,0,.8.4.8.8,0,0,0,0,0,0,0,.5-.3.9-.8,1,0,0,0,0,0,0-.5,0-.8-.4-.8-.8,0,0,0,0,0,0Z"/>
  <path class="cls-2" d="M272.3,64.5c.4-.2.8-.5.8-.8v-5.2l-1-.4v-.3c.6-.2,1.2-.3,1.9-.3h.4v.8c.6-.6,1.4-.9,2.3-.9,1.3,0,2.2.8,2.2,2.4v4.3l.8.2v.3c-.5.2-1.1.3-1.6.3-.3,0-.7,0-1-.1v-.3c.4-.2.6-.6.6-1v-3c0-1.5-.6-2.1-1.5-2.1-.6,0-1.1.2-1.6.5v5.2l.9.2v.3c-.6.2-1.2.3-1.8.3-.4,0-.8,0-1.2-.1v-.2Z"/>
  <path class="cls-2" d="M280.9,64.5c.4-.2.8-.5.8-.8v-5.2l-1-.4v-.3c.6-.2,1.2-.3,1.8-.3h.5v.8c0,0,0,5.9,0,5.9l.9.2v.3c-.6.2-1.2.3-1.8.3-.4,0-.8,0-1.2-.1v-.3ZM281.5,55.1c0-.5.4-.9.8-.9,0,0,0,0,0,0,.4,0,.8.3.8.8,0,0,0,0,0,0,0,.5-.3.9-.8,1,0,0,0,0,0,0-.5,0-.8-.4-.8-.8,0,0,0,0,0,0Z"/>
  <path class="cls-2" d="M285.1,63.1c.6.6,1.3,1,2.2,1,.9,0,1.3-.4,1.3-1s-.3-.9-1.3-1.3l-.8-.3c-.8-.3-1.4-1.1-1.4-1.9,0-1.3,1.3-2.4,2.6-2.3,0,0,0,0,0,0,1.2,0,1.7.4,1.7,1,0,.2,0,.4,0,.7-.5-.4-1.1-.6-1.8-.6-1,0-1.5.4-1.5,1s.3.9,1.2,1.2l.8.3c1.1.4,1.5,1,1.5,1.9s-1.1,2.3-2.9,2.3-2-.4-2-1.3c0-.2,0-.5.2-.7Z"/>
  <path class="cls-2" d="M291.7,60.5v-2.1s-.8,0-.8,0v-.5l1.7-1.7h.5c0,0,0,1.3,0,1.3h2v.8h-2.1v3.8c0,1.3.4,1.7.9,1.7.4,0,.8-.1,1.1-.4h.2c0,1-.6,1.4-1.7,1.4s-1.8-.7-1.8-2.2c0-.8,0-1.7,0-2.4Z"/>
  <path class="cls-2" d="M299,57.3c1.4,0,2.6,1,2.7,2.5,0,.1,0,.3,0,.4v1h-4.6c0,1.7,1,2.8,2.3,2.8.8,0,1.5-.2,2.2-.7,0,.1,0,.3,0,.4,0,.7-1,1.4-2.7,1.4-1.8,0-3.3-1.5-3.3-3.3,0,0,0-.2,0-.3,0-2.7,1.7-4.2,3.3-4.2ZM300.5,60.4c0-1.5-.6-2.2-1.6-2.2-1.1.2-1.8,1.2-1.8,2.2h3.3Z"/>
  <path class="cls-2" d="M303,64.5c.4-.2.8-.5.8-.8v-5.2l-1-.4v-.3c.6-.2,1.2-.3,1.9-.3h.4v1.1h0l.4-.5c.3-.4.8-.7,1.4-.7.5,0,.8.2.8.7,0,.3,0,.6-.2.9-.3-.2-.6-.4-1-.4-.5,0-1,.3-1.4.6v4.9l1.1.2v.3c-.6.2-1.3.3-1.9.3-.4,0-.8,0-1.2-.1v-.3Z"/>
  <path class="cls-2" d="M308.3,64.5c.4-.2.8-.5.8-.8v-5.2l-1-.4v-.3c.6-.2,1.2-.3,1.8-.3h.5v.8c0,0,0,5.9,0,5.9l.9.2v.3c-.6.2-1.2.3-1.8.3-.4,0-.8,0-1.2-.1v-.3ZM309,55.1c0-.5.4-.9.8-.9,0,0,0,0,0,0,.4,0,.8.3.8.8,0,0,0,0,0,0,0,.5-.3.9-.8,1,0,0,0,0,0,0-.5,0-.8-.4-.8-.8,0,0,0,0,0,0Z"/>
  <path class="cls-2" d="M315.7,57.3c1.4,0,2.6,1,2.7,2.5,0,.1,0,.3,0,.4v1h-4.6c0,1.7,1,2.8,2.3,2.8.8,0,1.5-.2,2.2-.7,0,.1,0,.3,0,.4,0,.7-1,1.4-2.7,1.4-1.8,0-3.2-1.5-3.2-3.3,0,0,0-.2,0-.2,0-2.7,1.6-4.2,3.2-4.2ZM317.2,60.4c0-1.5-.6-2.2-1.6-2.2-1.1.2-1.8,1.2-1.8,2.2h3.3Z"/>
  <path class="cls-2" d="M322.5,58.2l-.6-.5v-.4h3v.4l-.9.4,1.7,4.9h0l1.7-4.9-.9-.4v-.4h2.4v.4l-.4.4-2.8,6.9h-.5l-2.6-6.8Z"/>
  <path class="cls-2" d="M333.2,60.7v-.4c0-1.7-.4-2-1.4-2-.9,0-1.7.4-2.3,1,0-.2,0-.3,0-.5,0-1,.7-1.6,2.5-1.6s2.5.8,2.5,2.1,0,1.1,0,1.6v2.5c.1.3.3.6.6.8-.3.3-.7.6-1.1.8-.3-.2-.5-.5-.7-.8-.6.5-1.3.7-2.1.7-1,.1-1.9-.6-2-1.5,0,0,0-.1,0-.2,0-1.4,1.4-2.5,4-2.5ZM331.7,64.1c.5,0,1-.2,1.5-.4v-2.2c-1.8,0-2.7.7-2.7,1.6,0,.6.4,1,1.2,1Z"/>
  <path class="cls-2" d="M336.4,64.5c.4-.2.8-.5.8-.8v-5.2l-1-.4v-.3c.6-.2,1.2-.3,1.9-.3h.4v.8c.6-.6,1.4-.9,2.3-.9,1.3,0,2.2.8,2.2,2.4v4.3l.8.2v.3c-.5.2-1.1.3-1.6.3-.3,0-.7,0-1-.1v-.3c.4-.2.6-.6.6-1v-3c0-1.5-.6-2.1-1.5-2.1-.6,0-1.1.2-1.6.5v5.2l.9.2v.3c-.6.2-1.2.3-1.8.3-.4,0-.8,0-1.2-.1v-.2Z"/>
  <path class="cls-2" d="M348.2,64.5c.6,0,1-.6.9-1.2v-7.6l-1-.2v-.3c.6-.2,1.2-.2,1.8-.2.5,0,1,0,1.4.2v.3c-.5,0-1,.5-.9,1.1,0,0,0,0,0,0v7.7l1,.2v.3c-.6.2-1.2.3-1.8.3-.5,0-1,0-1.5-.2v-.3Z"/>
  <path class="cls-2" d="M352.9,64.5c.4-.2.8-.5.8-.8v-5.2l-1-.4v-.3c.6-.2,1.2-.3,1.9-.3h.4v.8c.6-.6,1.5-.9,2.3-.9,1.2,0,2.1.9,2.2,2,0,.1,0,.3,0,.4v4.3l.8.2v.3c-.5.2-1.1.3-1.6.3-.3,0-.7,0-1-.1v-.3c.4-.2.6-.6.6-1v-3c0-1.5-.6-2.1-1.5-2.1-.6,0-1.1.2-1.6.5v5.2l.9.2v.3c-.6.2-1.2.3-1.8.3-.4,0-.8,0-1.2-.1v-.2Z"/>
  <path class="cls-2" d="M361.5,64.5c.4-.2.8-.5.8-.8v-5.2h-.9v-.5l.9-.3v-1.1c0-1.5,1.1-2.8,2.6-2.8.1,0,.3,0,.4,0,1.1,0,1.5.3,1.5.7,0,.2,0,.3,0,.5-.7-.2-1.4-.3-2.1-.3-.6,0-1.1.6-1.1,1.7s0,1,0,1.4h2l-.2.8h-1.8v5.6l1,.2v.3c-.6.2-1.3.3-1.9.3-.4,0-.8,0-1.2-.1v-.3Z"/>
  <path class="cls-2" d="M366.2,64.5c.4-.2.8-.5.8-.8v-5.2l-1-.4v-.3c.6-.2,1.2-.3,1.9-.3h.4v1.1h0l.4-.5c.3-.4.8-.7,1.4-.7.5,0,.8.2.8.7,0,.3,0,.6-.2.9-.3-.2-.6-.4-1-.4-.5,0-1,.3-1.4.6v4.9l1.1.2v.3c-.6.2-1.3.3-1.9.3-.4,0-.8,0-1.2-.1v-.3Z"/>
  <path class="cls-2" d="M375.4,60.7v-.4c0-1.7-.4-2-1.4-2-.9,0-1.7.4-2.3,1,0-.2,0-.3,0-.5,0-1,.7-1.6,2.5-1.6s2.5.8,2.5,2.1,0,1.1,0,1.6v2.5c0,.3.3.6.6.8-.3.3-.7.6-1,.8-.3-.2-.5-.5-.7-.8-.6.5-1.3.8-2.1.7-1,.1-1.9-.6-2-1.5,0,0,0-.1,0-.2,0-1.4,1.5-2.5,4.1-2.5ZM373.9,64.1c.5,0,1-.2,1.5-.4v-2.2c-1.8,0-2.7.7-2.7,1.6s.4,1,1.2,1Z"/>
  <path class="cls-2" d="M378.5,63.1c.6.6,1.3,1,2.2,1,.9,0,1.3-.4,1.3-1s-.3-.9-1.3-1.3l-.8-.3c-.8-.3-1.4-1.1-1.4-1.9,0-1.3,1.3-2.4,2.6-2.3,0,0,0,0,0,0,1.2,0,1.7.4,1.7,1,0,.2,0,.4,0,.7-.5-.4-1.1-.6-1.8-.6-1,0-1.5.4-1.5,1s.3.9,1.2,1.2l.8.3c1.1.4,1.5,1,1.5,1.9s-1.1,2.3-2.9,2.3-2-.4-2-1.3c0-.2,0-.5.2-.7Z"/>
  <path class="cls-2" d="M385.1,60.5v-2.1s-.8,0-.8,0v-.5l1.7-1.7h.5c0,0,0,1.3,0,1.3h2v.8h-2.1v3.8c0,1.3.4,1.7.9,1.7.4,0,.8-.1,1.1-.4h.2c0,1-.6,1.4-1.7,1.4s-1.8-.7-1.8-2.2c0-.8,0-1.7,0-2.4Z"/>
  <path class="cls-2" d="M389.3,64.5c.4-.2.8-.5.8-.8v-5.2l-1-.4v-.3c.6-.2,1.2-.3,1.9-.3h.4v1.1h0l.4-.5c.3-.4.8-.7,1.4-.7.5,0,.8.2.8.7,0,.3,0,.6-.2.9-.3-.2-.6-.4-1-.4-.5,0-1,.3-1.4.6v4.9l1.1.2v.3c-.6.2-1.3.3-1.9.3-.4,0-.8,0-1.2-.1v-.3Z"/>
  <path class="cls-2" d="M395.3,58.4l-.9-.4v-.3c.6-.2,1.1-.3,1.7-.3h.5v.9c-.1,0-.1,3.5-.1,3.5,0,1.6.5,2.2,1.5,2.2.5,0,1.1-.2,1.5-.5v-5l-.9-.4v-.3c.6-.2,1.2-.3,1.8-.3h.5v.9c0,0,0,5.2,0,5.2.1.3.3.6.6.8-.3.3-.7.5-1.1.7-.3-.2-.6-.5-.7-.9-.6.5-1.4.8-2.2.8-1.3,0-2.1-.8-2.1-2.5v-4Z"/>
  <path class="cls-2" d="M406.4,57.3c1.3,0,1.7.4,1.7.9,0,.3,0,.6-.2.8-.5-.4-1.1-.7-1.8-.7-1.1,0-2,1.1-2,2.9s1,2.8,2.2,2.8c.6,0,1.3-.2,1.8-.6,0,.1,0,.3,0,.4,0,.7-.8,1.3-2.3,1.3-1.8,0-3.2-1.6-3.1-3.4,0,0,0-.1,0-.2,0-2.6,1.6-4.1,3.7-4.1Z"/>
  <path class="cls-2" d="M409.9,60.5v-2.1h-.9v-.5l1.7-1.7h.5c0,0,0,1.3,0,1.3h2v.8h-2.1v3.8c0,1.3.4,1.7,1,1.7.4,0,.8-.1,1.1-.4h.2c0,1-.6,1.4-1.7,1.4s-1.8-.7-1.8-2.2c0-.8,0-1.7,0-2.4Z"/>
  <path class="cls-2" d="M414.8,58.4l-.9-.4v-.3c.6-.2,1.1-.3,1.7-.3h.5v.9c0,0,0,3.5,0,3.5,0,1.6.5,2.2,1.5,2.2.5,0,1.1-.2,1.5-.5v-5l-.9-.4v-.3c.6-.2,1.2-.3,1.8-.3h.5v.9c0,0,0,5.2,0,5.2.1.3.3.6.6.8-.3.3-.7.5-1.1.7-.3-.2-.6-.5-.7-.9-.6.5-1.4.8-2.2.8-1.3,0-2.1-.8-2.1-2.5v-4Z"/>
  <path class="cls-2" d="M423.2,58.4l-.9-.4v-.3c.6-.2,1.1-.3,1.7-.3h.5v.9c0,0,0,3.5,0,3.5,0,1.6.5,2.2,1.5,2.2.5,0,1.1-.2,1.5-.5v-5l-.9-.4v-.3c.6-.2,1.2-.3,1.8-.3h.5v.9c-.1,0-.1,5.2-.1,5.2.1.3.3.6.6.8-.3.3-.7.5-1,.7-.3-.2-.6-.5-.7-.9-.6.5-1.4.8-2.2.8-1.3,0-2.1-.8-2.1-2.5v-4Z"/>
  <path class="cls-2" d="M430.8,64.5c.4-.2.8-.5.8-.8v-5.2l-1-.4v-.3c.6-.2,1.2-.3,1.9-.3h.4v1.1h0l.4-.5c.3-.4.8-.7,1.4-.7.5,0,.8.2.8.7,0,.3,0,.6-.2.9-.3-.2-.6-.4-1-.4-.5,0-1,.3-1.4.6v4.9l1.1.2v.3c-.6.2-1.3.3-1.9.3-.4,0-.8,0-1.2-.1v-.3Z"/>
  <path class="cls-2" d="M258.9,74.9c1.4,0,2.6,1,2.7,2.5,0,.1,0,.3,0,.4v1h-4.6c0,1.7,1,2.8,2.3,2.8.8,0,1.5-.2,2.2-.7,0,.1,0,.3,0,.4,0,.7-1,1.3-2.7,1.3-1.8,0-3.3-1.5-3.2-3.3,0,0,0-.2,0-.3,0-2.7,1.6-4.1,3.2-4.1ZM260.3,78c0-1.5-.6-2.2-1.6-2.2-1.1.2-1.8,1.2-1.8,2.2h3.3Z"/>
  <path class="cls-2" d="M262.9,82.1c.4-.2.8-.5.8-.8v-5.3l-1-.4v-.3c.6-.2,1.2-.3,1.9-.3h.4v.8c.6-.6,1.5-.9,2.3-.9,1.2,0,2.1.9,2.2,2,0,.1,0,.3,0,.4v4.3l.8.2v.3c-.5.2-1.1.3-1.6.3-.3,0-.7,0-1-.1v-.2c.4-.2.6-.6.5-1v-3c0-1.5-.6-2.1-1.5-2.1-.6,0-1.1.2-1.6.5v5.2l.9.2v.3c-.6.2-1.2.3-1.8.3-.4,0-.8,0-1.2-.1v-.3Z"/>
  <path class="cls-2" d="M274.5,73.2l-.9-.3v-.3c.5-.2,1-.3,1.6-.3.5,0,.9,0,1.4.1v.3c-.5,0-.6.4-.5.9l1.7,6.3h0l1.6-6.7-.8-.2v-.3c.5-.2,1.1-.2,1.7-.2.4,0,.8,0,1.3.2v.3c-.3,0-.4.3-.3.8l1.5,6.3h0l1.7-6.7-1-.3v-.3c.5-.2,1.1-.2,1.6-.2.3,0,.7,0,1,.2v.3c-.4.2-.7.6-.8,1.1l-2.5,8.5h-.6c0,0-2.2-8.1-2.2-8.1h0l-2.1,8.1h-.6c0,0-2.9-9.2-2.9-9.2Z"/>
  <path class="cls-2" d="M290.3,78.3v-.4c0-1.7-.4-2-1.4-2-.9,0-1.7.4-2.3,1,0-.2,0-.3,0-.5,0-1,.7-1.6,2.5-1.6s2.5.8,2.5,2.1,0,1.1,0,1.6v2.5c.1.3.3.6.6.8-.3.3-.7.6-1.1.8-.3-.2-.5-.5-.7-.8-.6.5-1.3.8-2.1.7-1,.1-1.9-.6-2-1.6,0,0,0-.1,0-.2,0-1.4,1.5-2.6,4-2.6ZM288.9,81.7c.5,0,1-.2,1.5-.4v-2.2c-1.8,0-2.7.7-2.7,1.6,0,.6.4,1,1.2,1Z"/>
  <path class="cls-2" d="M294.2,78.1v-2.1s-.8,0-.8,0v-.5l1.7-1.7h.5c0,0,0,1.3,0,1.3h2v.8h-2.1v3.8c0,1.3.4,1.7.9,1.7.4,0,.8-.1,1.1-.4h.1c0,1-.6,1.4-1.7,1.4s-1.9-.7-1.9-2.2c0-.8,0-1.6,0-2.3Z"/>
  <path class="cls-2" d="M301.6,74.9c1.4,0,2.6,1,2.7,2.5,0,.1,0,.3,0,.4v1h-4.6c0,1.7,1,2.8,2.3,2.8.8,0,1.5-.2,2.2-.7,0,.1,0,.3,0,.4,0,.7-1,1.3-2.7,1.3-1.8,0-3.3-1.5-3.2-3.3,0,0,0-.2,0-.3,0-2.7,1.6-4.1,3.2-4.1ZM303,78c0-1.5-.6-2.2-1.6-2.2-1.1.2-1.8,1.2-1.7,2.2h3.3Z"/>
  <path class="cls-2" d="M305.6,82.1c.4-.2.8-.5.8-.8v-5.3l-1-.4v-.3c.6-.2,1.2-.3,1.9-.3h.4v1.1h0l.4-.5c.3-.4.8-.7,1.4-.7.5,0,.8.2.8.7,0,.3,0,.6-.2.9-.3-.2-.6-.4-1-.4-.5,0-1,.3-1.4.6v4.9l1.1.2v.3c-.6.2-1.3.3-1.9.3-.4,0-.8,0-1.2-.1v-.2Z"/>
  <path class="cls-2" d="M310.8,80.7c.6.6,1.4,1,2.2,1,.9,0,1.3-.4,1.3-1s-.3-.9-1.3-1.3l-.8-.3c-.8-.3-1.4-1-1.4-1.9,0-1.4,1.3-2.4,2.6-2.3,0,0,0,0,0,0,1.2,0,1.7.4,1.7,1,0,.2,0,.4,0,.7-.5-.4-1.1-.6-1.8-.6-1,0-1.5.4-1.5,1s.3.9,1.2,1.2l.8.3c1.1.4,1.5,1,1.5,1.9s-1.1,2.3-2.9,2.3-2-.4-2-1.3c0-.2,0-.5.2-.7Z"/>
  <path class="cls-2" d="M317.4,78.1v-2.1s-.8,0-.8,0v-.5l1.7-1.7h.5c0,0,0,1.3,0,1.3h2v.8h-2.1v3.8c0,1.3.4,1.7.9,1.7.4,0,.8-.1,1.1-.4h.1c0,1-.6,1.4-1.7,1.4s-1.9-.7-1.9-2.2c0-.8,0-1.6,0-2.3Z"/>
  <path class="cls-2" d="M325.4,78.3v-.4c0-1.7-.4-2-1.4-2-.9,0-1.7.4-2.3,1,0-.2,0-.3,0-.5,0-1,.7-1.6,2.5-1.6s2.5.8,2.5,2.1,0,1.1,0,1.6v2.5c.1.3.3.6.6.8-.3.3-.7.6-1.1.8-.3-.2-.5-.5-.7-.8-.6.5-1.3.8-2.1.7-1,.1-1.9-.6-2-1.5,0,0,0-.1,0-.2,0-1.4,1.4-2.6,4-2.6ZM323.9,81.7c.5,0,1-.2,1.5-.4v-2.2c-1.8,0-2.7.7-2.7,1.6,0,.6.4,1,1.2,1Z"/>
  <path class="cls-2" d="M332.5,78.3v-.4c0-1.7-.4-2-1.4-2-.9,0-1.7.4-2.3,1,0-.2,0-.3,0-.5,0-1,.7-1.6,2.5-1.6s2.5.8,2.5,2.1,0,1.1,0,1.6v2.5c0,.3.2.6.5.8-.3.3-.6.6-1,.8-.3-.2-.5-.5-.7-.8-.6.5-1.3.8-2.1.7-1,.1-1.9-.6-2-1.6,0,0,0-.1,0-.2,0-1.3,1.5-2.5,4-2.5ZM331,81.7c.5,0,1-.2,1.5-.4v-2.2c-1.8,0-2.7.7-2.7,1.6,0,.6.4,1,1.2,1Z"/>
  <path class="cls-2" d="M336.3,78.1v-2.1s-.8,0-.8,0v-.5l1.7-1.7h.5c0,0,0,1.3,0,1.3h2.1v.8h-2.1v3.8c0,1.3.4,1.7.9,1.7.4,0,.8-.1,1.1-.4h.2c0,1-.6,1.4-1.7,1.4s-1.8-.7-1.8-2.2c0-.8,0-1.6,0-2.3Z"/>
</svg>